<mxfile host="app.diagrams.net" modified="2023-10-09T16:24:38.830Z" agent="Mozilla/5.0 (Windows NT 10.0; Win64; x64) AppleWebKit/537.36 (KHTML, like Gecko) Chrome/117.0.0.0 Safari/537.36" version="22.0.4" etag="HIicYmK6cbDQ9HfPgcPQ" type="github">
  <diagram name="PÃ¡gina-1" id="mG-L4HED1XU0AZiBFtAG">
    <mxGraphModel>
      <root>
        <mxCell id="0" />
        <mxCell id="1" parent="0" />
      </root>
    </mxGraphModel>
  </diagram>
</mxfile>
